# xmcd
#
# Track frame offsets: 
#        150
#        28225
#        52331
#        73278
#        102793
#        128047
#        153829
#        177439
#        200993
#        221991
#        257429
#
# Disc length: 3693 seconds
#
# Revision: 0
# Processed by: cddbd v1.5.2PL0 Copyright (c) Steve Scherf et al.
# Submitted via: ExactAudioCopyFreeDBPlugin 1.0
#
DISCID=ae0e6b0b
DTITLE=黑鸭子 - DTSES美丽人生
DYEAR=2008
DGENRE=DTSES
TTITLE0=六字大明咒
TTITLE1=心经
TTITLE2=观音菩萨在心中
TTITLE3=文殊菩萨赞
TTITLE4=炉香赞
TTITLE5=地藏王菩萨赞
TTITLE6=药师佛心咒
TTITLE7=有一份爱
TTITLE8=消灾吉祥神咒
TTITLE9=大吉祥天女咒
TTITLE10=佛母准提神咒
EXTD=
EXTT0=
EXTT1=
EXTT2=
EXTT3=
EXTT4=
EXTT5=
EXTT6=
EXTT7=
EXTT8=
EXTT9=
EXTT10=
PLAYORDER=
